<?xml version="1.0" encoding="UTF-8" standalone="no"?>
<svg width="91px" height="58px" viewBox="0 0 91 58" version="1.1" xmlns="http://www.w3.org/2000/svg" xmlns:xlink="http://www.w3.org/1999/xlink" xmlns:sketch="http://www.bohemiancoding.com/sketch/ns">
    <!-- Generator: Sketch Beta 3.3 (11751) - http://www.bohemiancoding.com/sketch -->
    <title>logo-zen</title>
    <desc>Created with Sketch Beta.</desc>
    <defs></defs>
    <g id="Page-1" stroke="none" stroke-width="1" fill="none" fill-rule="evenodd" sketch:type="MSPage">
        <g id="logo-zen" sketch:type="MSLayerGroup" transform="translate(0.000000, -1.000000)" fill="#FFFFFF">
            <path d="M60.45,27.21 C62.836,26.475 65.151,25.967 67.287,25.62 C67.194,21.766 66.681,18.581 66.31,16.751 C64.781,17.317 62.311,18.336 59.507,19.868 C59.972,21.682 60.288,23.569 60.403,25.511 C60.438,26.08 60.453,26.646 60.45,27.21 L60.45,27.21 Z" id="Shape" sketch:type="MSShapeGroup"></path>
            <path d="M69.453,42.136 C71.753,37.489 73.024,32.92 73.638,29.818 C65.202,30.182 46.97,28.271 40.697,53.016 C40.275,54.681 39.502,57.017 38.875,58.795 C40.808,58.527 59.508,62.23 69.453,42.136 L69.453,42.136 Z" id="Shape" sketch:type="MSShapeGroup"></path>
            <path d="M73.278,41.645 C72.984,42.296 72.675,42.951 72.341,43.607 C68.651,50.857 63.618,55.913 57.313,58.739 C75.337,60.826 90.5,49.68 90.5,49.68 C90.5,49.68 83.425,44.336 73.278,41.645 L73.278,41.645 Z" id="Shape" sketch:type="MSShapeGroup"></path>
            <path d="M42.97,38.317 C46.277,34.338 50.591,31.186 55.893,28.889 C56.318,28.705 56.742,28.531 57.164,28.365 C57.215,27.49 57.221,26.608 57.169,25.719 C56.482,13.986 47.3,4.089 44.124,0.999 C42.105,3.017 37.633,7.901 34.567,14.307 C32.154,19.35 31.097,24.219 31.384,28.891 C36.182,31.243 40.052,34.395 42.97,38.317 L42.97,38.317 Z" id="Shape" sketch:type="MSShapeGroup"></path>
            <path d="M15.501,42.768 C15.428,42.628 15.36,42.491 15.29,42.352 C6.337,45.213 6.808,44.912 0.5,49.68 C0.5,49.68 15.162,60.458 32.785,58.835 C25.494,56.09 19.692,50.702 15.501,42.768 L15.501,42.768 Z" id="Shape" sketch:type="MSShapeGroup"></path>
            <path d="M14.002,29.168 C14.674,32.213 15.97,36.713 18.367,41.252 C22.584,49.237 28.554,54.369 36.126,56.525 C36.301,56.041 37.325,47.883 41.054,41.644 C35.058,30.77 20.632,29.313 14.002,29.168 L14.002,29.168 Z" id="Shape" sketch:type="MSShapeGroup"></path>
            <path d="M29.04,20.073 C26.078,18.421 23.456,17.34 21.857,16.749 C21.497,18.545 20.997,21.643 20.887,25.387 C23.21,25.862 25.669,26.533 28.133,27.477 C28.123,25.046 28.42,22.574 29.04,20.073 L29.04,20.073 Z" id="Shape" sketch:type="MSShapeGroup"></path>
        </g>
    </g>
</svg>