<?xml version="1.0" encoding="UTF-8" standalone="no"?>
<svg width="99px" height="96px" viewBox="0 0 99 96" version="1.1" xmlns="http://www.w3.org/2000/svg" xmlns:xlink="http://www.w3.org/1999/xlink" xmlns:sketch="http://www.bohemiancoding.com/sketch/ns">
    <!-- Generator: Sketch Beta 3.3 (11751) - http://www.bohemiancoding.com/sketch -->
    <title>logo</title>
    <desc>Created with Sketch Beta.</desc>
    <defs></defs>
    <g id="Page-1" stroke="none" stroke-width="1" fill="none" fill-rule="evenodd" sketch:type="MSPage">
        <g id="logo" sketch:type="MSLayerGroup" fill="#FFFFFF">
            <path d="M82.31,19.662 C82.31,8.508 75.66,0 64.507,0 C57.894,0 50.525,5.592 49.155,12.271 C47.786,5.591 40.417,0 33.805,0 C22.653,0 16,8.508 16,19.662 C16,26.615 20.48,32.877 25.955,36.83 C37.334,45.053 40.01,46.508 49.154,55.65 C58.3,46.507 60.974,45.052 72.355,36.83 C77.83,32.877 82.31,26.615 82.31,19.662 L82.31,19.662 Z" id="Shape" sketch:type="MSShapeGroup"></path>
            <path d="M19.854,51.588 L19.854,51.592 L16.012,48.1 C15.008,47.098 13.66,46.674 12.352,46.791 C11.313,46.881 10.299,47.303 9.506,48.1 C7.707,49.897 7.707,52.811 9.506,54.606 L13.856,58.555 L20.711,64.774 L25.106,68.76 C25.704,69.301 25.749,70.225 25.21,70.821 C24.665,71.419 23.745,71.46 23.148,70.921 L8.051,57.227 C6.242,55.877 5.067,53.721 5.067,51.291 C5.067,47.359 8.139,44.145 12.01,43.908 L9.202,20.602 C9.202,18.061 7.143,16 4.6,16 C2.057,16 0,18.061 0,20.602 L0,62.653 C0,64.176 0.74,65.526 1.877,66.364 L18.658,81.426 C20.197,82.881 21.156,84.942 21.156,87.225 L21.156,92.44 L21.162,92.44 L21.162,92.456 C21.162,94.286 22.641,95.767 24.469,95.767 L37.18,95.767 C39.012,95.767 40.491,94.287 40.491,92.456 L40.491,92.44 L40.491,89.981 L40.491,75.364 C40.468,72.02 39.016,69.014 36.72,66.925 L19.854,51.588 L19.854,51.588 Z" id="Shape" sketch:type="MSShapeGroup"></path>
            <path d="M93.89,16 C91.347,16 89.283,18.061 89.283,20.602 L86.476,43.909 C90.351,44.145 93.419,47.36 93.419,51.292 C93.419,53.722 92.247,55.878 90.44,57.228 L75.339,70.919 C74.745,71.458 73.819,71.417 73.28,70.819 C72.741,70.223 72.78,69.299 73.378,68.758 L77.778,64.772 L84.628,58.553 L88.983,54.604 C90.782,52.809 90.782,49.895 88.983,48.098 C88.19,47.301 87.176,46.879 86.137,46.789 C84.828,46.672 83.481,47.096 82.477,48.098 L78.635,51.59 L78.635,51.586 L61.771,66.923 C59.474,69.013 58.023,72.019 58,75.362 L58,89.979 L58,92.439 L58,92.455 C58,94.285 59.479,95.766 61.307,95.766 L74.016,95.766 C75.85,95.766 77.328,94.286 77.328,92.455 L77.328,92.439 L77.328,87.224 C77.328,84.941 78.295,82.88 79.832,81.425 L96.609,66.363 C97.75,65.525 98.49,64.175 98.49,62.652 L98.49,20.601 C98.49,18.06 96.427,16 93.89,16 L93.89,16 Z" id="Shape" sketch:type="MSShapeGroup"></path>
        </g>
    </g>
</svg>