<?xml version="1.0" encoding="UTF-8" standalone="no"?>
<svg width="68px" height="65px" viewBox="0 0 68 65" version="1.1" xmlns="http://www.w3.org/2000/svg" xmlns:xlink="http://www.w3.org/1999/xlink" xmlns:sketch="http://www.bohemiancoding.com/sketch/ns">
    <!-- Generator: Sketch Beta 3.3 (11751) - http://www.bohemiancoding.com/sketch -->
    <title>logo</title>
    <desc>Created with Sketch Beta.</desc>
    <defs></defs>
    <g id="Page-1" stroke="none" stroke-width="1" fill="none" fill-rule="evenodd" sketch:type="MSPage">
        <g id="logo" sketch:type="MSLayerGroup" fill="#FFFFFF">
            <path d="M52.6133951,57.7022658 C52.8823951,57.6402658 53.0503951,57.3702658 52.9873951,57.1012658 C52.9243951,56.8322658 52.6583951,56.6612658 52.3863951,56.7272658 C46.2743951,58.1452658 40.7323951,57.3032658 34.8643951,56.4132658 C34.5303951,56.3622658 34.1953951,56.3112658 33.8603951,56.2612658 C35.6143951,53.5662658 37.0793951,47.2822658 37.1273951,43.4912658 C37.3363951,43.5122658 37.5433951,43.5222658 37.7463951,43.5222658 C42.8943951,43.5222658 44.6503951,36.9632658 44.7233951,36.6842658 C44.7623951,36.5322658 44.7273951,36.3692658 44.6283951,36.2462658 C44.5293951,36.1242658 44.3763951,36.0442658 44.2203951,36.0592658 C41.0533951,36.1762658 38.4153951,37.4052658 36.9823951,39.4322658 C36.6893951,39.8472658 36.4623951,40.2842658 36.2993951,40.7212658 C36.0873951,40.3462658 35.8373951,39.9702658 35.5053951,39.5982658 C33.6383951,37.5032658 30.1013951,35.8272658 27.9093951,36.0142658 C27.7743951,36.0252658 27.6503951,36.0902658 27.5643951,36.1952658 C27.4783951,36.3002658 27.4393951,36.4342658 27.4543951,36.5692658 C27.7813951,39.4312658 31.8943951,43.6562658 35.1563951,43.6572658 C35.5013951,43.6572658 35.8203951,43.5932658 36.1263951,43.4992658 C36.0823951,47.5572658 34.3883951,54.0192658 32.7733951,56.0732658 C32.7673951,56.0812658 32.7653951,56.0912658 32.7603951,56.0982658 C26.1333951,55.1312658 19.2283951,54.4962658 11.3163951,57.6242658 C11.0593951,57.7252658 10.9333951,58.0162658 11.0353951,58.2722658 C11.1123951,58.4682658 11.3013951,58.5882658 11.5003951,58.5882658 C11.5623951,58.5882658 11.6233951,58.5772658 11.6843951,58.5532658 C20.1873951,55.1932658 27.5713951,56.3162658 34.7143951,57.4002658 C40.4163951,58.2682658 46.3123951,59.1652658 52.6133951,57.7022658 L52.6133951,57.7022658 Z M37.7983951,40.0112658 C38.9443951,38.3912658 41.0113951,37.3532658 43.5383951,37.1072658 C42.9723951,38.6922658 41.2403951,42.5232658 37.7463951,42.5232658 C37.5123951,42.5232658 37.2693951,42.5062658 37.0243951,42.4722658 C36.9323951,41.7612658 37.2183951,40.8302658 37.7983951,40.0112658 L37.7983951,40.0112658 Z M35.1563951,42.6572658 C32.6353951,42.6572658 29.2673951,39.3932658 28.5643951,37.0112658 C30.5013951,37.1502658 33.2593951,38.5832658 34.7583951,40.2642658 C35.2663951,40.8332658 35.8423951,41.6712658 35.8663951,42.5522658 C35.6483951,42.6222658 35.4103951,42.6572658 35.1563951,42.6572658 L35.1563951,42.6572658 Z" id="Shape" sketch:type="MSShapeGroup"></path>
            <path d="M56.8118368,61.0939573 C51.6348368,64.8149573 38.4768368,63.3099573 34.5688368,62.7609573 C34.3038368,62.7219573 34.0438368,62.9129573 34.0048368,63.1859573 C33.9668368,63.4589573 34.1568368,63.7129573 34.4308368,63.7509573 C36.8248368,64.0879573 40.8268368,64.5429573 44.9538368,64.5429573 C49.6708368,64.5429573 54.5548368,63.9489573 57.3958368,61.9059573 C57.6198368,61.7439573 57.6708368,61.4319573 57.5098368,61.2079573 C57.3478368,60.9839573 57.0358368,60.9329573 56.8118368,61.0939573 L56.8118368,61.0939573 Z" id="Shape" sketch:type="MSShapeGroup"></path>
            <path d="M67.3448875,55.350783 C61.8398875,51.184783 50.5038875,51.279783 47.5078875,51.384783 C55.3878875,26.472783 49.7008875,17.206783 47.3688875,13.899783 C48.5098875,12.696783 54.2498875,6.190783 50.9448875,0.256782999 C50.8248875,0.0387829994 50.5598875,-0.0552170006 50.3308875,0.0327829994 C48.0898875,0.886782999 46.3848875,2.806783 45.5298875,5.439783 C44.7718875,7.775783 44.8288875,10.295783 45.6148875,12.390783 C43.9448875,11.451783 41.5938875,10.862783 39.2668875,10.862783 C35.5948875,10.862783 32.3478875,12.274783 30.1218875,14.837783 C30.0318875,14.941783 29.9878875,15.079783 30.0028875,15.216783 C30.0168875,15.353783 30.0878875,15.479783 30.1968875,15.563783 C30.3458875,15.676783 33.8868875,18.325783 38.3378875,18.325783 C41.4638875,18.325783 44.2138875,17.010783 46.5308875,14.446783 C48.7948875,17.652783 54.4068875,26.739783 46.3368875,51.761783 C46.2858875,51.917783 46.3158875,52.090783 46.4168875,52.220783 C46.5188875,52.351783 46.6808875,52.425783 46.8418875,52.413783 C46.9838875,52.405783 60.7888875,51.642783 66.7398875,56.145783 C66.8298875,56.213783 66.9358875,56.247783 67.0418875,56.247783 C67.1928875,56.247783 67.3428875,56.179783 67.4398875,56.049783 C67.6078875,55.831783 67.5638875,55.516783 67.3448875,55.350783 L67.3448875,55.350783 Z M46.4808875,5.749783 C47.1868875,3.576783 48.5248875,1.957783 50.2768875,1.141783 C52.5528875,5.925783 48.3398875,11.295783 46.9218875,12.902783 C45.8588875,10.886783 45.6838875,8.209783 46.4808875,5.749783 L46.4808875,5.749783 Z M38.3388875,17.326783 C35.1098875,17.326783 32.3198875,15.759783 31.2588875,15.077783 C33.8068875,12.433783 36.9928875,11.863783 39.2678875,11.863783 C42.1488875,11.863783 44.5878875,12.781783 45.8538875,13.729783 C43.7188875,16.117783 41.1918875,17.326783 38.3388875,17.326783 L38.3388875,17.326783 Z" id="Shape" sketch:type="MSShapeGroup"></path>
            <path d="M15.9940269,52.605184 C16.1650269,52.605184 16.3200269,52.526184 16.4150269,52.386184 C16.5100269,52.247184 16.5280269,52.070184 16.4650269,51.915184 C15.1030269,48.597184 15.3330269,39.815184 16.4770269,35.938184 C17.0050269,36.037184 17.9690269,36.180184 19.1700269,36.180184 L19.1710269,36.180184 C22.5380269,36.180184 28.3910269,35.002184 29.7530269,27.119184 C29.7780269,26.971184 29.7350269,26.819184 29.6370269,26.706184 C29.5390269,26.593184 29.3960269,26.519184 29.2440269,26.535184 C22.9780269,26.733184 20.1910269,28.382184 18.0400269,31.297184 C18.3700269,29.183184 18.2440269,26.905184 17.5730269,24.939184 C16.8690269,22.877184 15.2780269,20.176184 11.6960269,19.024184 C11.4410269,18.942184 11.1680269,19.075184 11.0740269,19.325184 C11.0300269,19.444184 6.81202695,31.097184 15.4730269,35.790184 C14.3720269,39.710184 14.1290269,47.744184 15.2960269,51.603184 C12.7590269,51.624184 4.24602695,51.897184 0.22102695,54.605184 C-0.00797305011,54.759184 -0.0689730501,55.070184 0.0850269499,55.299184 C0.18202695,55.442184 0.34002695,55.520184 0.50002695,55.520184 C0.59702695,55.520184 0.69302695,55.493184 0.77902695,55.435184 C5.17902695,52.476184 15.8920269,52.606184 15.9940269,52.605184 L15.9940269,52.605184 Z M28.6490269,27.560184 C27.3050269,33.839184 22.7850269,35.181184 19.1700269,35.181184 C18.2360269,35.181184 17.4420269,35.085184 16.9250269,35.001184 C19.4430269,30.396184 21.3900269,27.919184 28.6490269,27.560184 L28.6490269,27.560184 Z M10.9800269,25.861184 C10.9640269,23.332184 11.5650269,21.082184 11.8570269,20.141184 C14.7160269,21.243184 16.0280269,23.509184 16.6260269,25.262184 C17.6850269,28.361184 17.3320269,32.304184 15.8090269,34.843184 C12.6310269,33.064184 11.0070269,30.045184 10.9800269,25.861184 L10.9800269,25.861184 Z" id="Shape" sketch:type="MSShapeGroup"></path>
        </g>
    </g>
</svg>