<?xml version="1.0" encoding="UTF-8" standalone="no"?>
<svg width="94px" height="98px" viewBox="0 0 94 98" version="1.1" xmlns="http://www.w3.org/2000/svg" xmlns:xlink="http://www.w3.org/1999/xlink" xmlns:sketch="http://www.bohemiancoding.com/sketch/ns">
    <!-- Generator: Sketch Beta 3.3 (11751) - http://www.bohemiancoding.com/sketch -->
    <title>logo</title>
    <desc>Created with Sketch Beta.</desc>
    <defs></defs>
    <g id="Page-1" stroke="none" stroke-width="1" fill="none" fill-rule="evenodd" sketch:type="MSPage">
        <g id="logo" sketch:type="MSLayerGroup" fill="#FFFFFF">
            <path d="M47,0.239 C53.746,0.239 59.743,5.485 59.743,12.231 C59.743,19.727 53.746,24.973 47,24.973 C40.254,24.973 35.008,19.727 35.008,12.231 C35.008,5.485 40.254,0.239 47,0.239 L47,0.239 L47,0.239 Z" id="Shape" sketch:type="MSShapeGroup"></path>
            <path d="M35.756,27.971 L47,27.971 L58.993,27.971 C61.992,27.971 63.49,27.971 66.488,32.469 C69.486,36.218 73.235,45.211 74.733,51.957 C76.232,58.703 76.982,60.951 70.986,64.699 C64.99,68.447 55.245,70.696 47,70.696 L47,70.696 C38.755,70.696 29.012,68.447 23.016,64.699 C17.02,60.951 18.518,58.703 20.018,51.957 C21.517,45.21 25.265,36.217 28.263,32.469 C30.51,27.971 32.009,27.971 35.756,27.971 L35.756,27.971 L35.756,27.971 Z M47.75,60.202 L57.494,60.202 C57.494,63.2 52.997,65.449 47.75,65.449 C41.753,65.449 37.256,63.2 37.256,60.202 L47.75,60.202 L47.75,60.202 Z" id="Shape" sketch:type="MSShapeGroup"></path>
            <path d="M47,75.756 C37.256,76.506 32.01,70.696 27.512,69.946 C22.266,69.196 21.516,69.946 17.019,72.944 C12.521,75.942 3.527,83.438 1.279,88.684 C-1.72,93.931 0.529,98.428 9.523,97.679 C18.517,96.179 29.76,93.931 38.004,91.682 C41.752,90.933 41.752,90.183 46.999,90.183 C52.247,90.183 52.247,90.933 55.995,91.682 C64.239,93.931 75.481,96.179 84.476,97.679 C93.47,98.428 95.719,93.931 92.72,88.684 C90.471,83.438 81.478,75.942 76.981,72.944 C72.484,69.946 71.734,69.196 66.487,69.946 C61.991,70.696 56.743,76.506 47,75.756" id="Shape" sketch:type="MSShapeGroup"></path>
        </g>
    </g>
</svg>