<?xml version="1.0" encoding="UTF-8" standalone="no"?>
<svg width="45px" height="58px" viewBox="0 0 45 58" version="1.1" xmlns="http://www.w3.org/2000/svg" xmlns:xlink="http://www.w3.org/1999/xlink" xmlns:sketch="http://www.bohemiancoding.com/sketch/ns">
    <!-- Generator: Sketch Beta 3.3 (11751) - http://www.bohemiancoding.com/sketch -->
    <title>logo</title>
    <desc>Created with Sketch Beta.</desc>
    <defs></defs>
    <g id="Page-1" stroke="none" stroke-width="1" fill="none" fill-rule="evenodd" sketch:type="MSPage">
        <path d="M44.534,28.0035519 L44.534,22.9735519 C44.534,21.1955519 43.087,19.7485519 41.309,19.7485519 L23.517,19.7485519 L23.517,11.3155519 C23.923,11.3645519 24.387,11.4015519 24.897,11.4015519 C26.432,11.4015519 28.33,11.0805519 29.919,9.83555188 C32.058,8.16155188 33.061,5.30955188 32.901,1.35655188 C32.899,1.30755188 32.875,1.26655188 32.868,1.21855188 C32.855,1.13555188 32.839,1.05855188 32.81,0.98155188 C32.78,0.89955188 32.743,0.82655188 32.698,0.75355188 C32.661,0.69455188 32.624,0.64055188 32.579,0.58855188 C32.513,0.51355188 32.441,0.45155188 32.36,0.39455188 C32.314,0.36255188 32.27,0.33255188 32.219,0.30655188 C32.125,0.25755188 32.028,0.22655188 31.922,0.20355188 C31.886,0.19555188 31.857,0.17355188 31.82,0.16855188 C27.901,-0.36444812 24.967,0.36855188 23.099,2.34055188 C21.6,3.92255188 21.142,5.95755188 21.044,7.54555188 C19.928,6.59855188 18.412,5.70455188 16.557,5.56655188 C13.84,5.35355188 11.185,6.79855188 8.644,9.82955188 C8.613,9.86655188 8.603,9.91355188 8.577,9.95355188 C8.53,10.0245519 8.489,10.0945519 8.458,10.1725519 C8.428,10.2465519 8.408,10.3195519 8.393,10.3985519 C8.378,10.4775519 8.369,10.5535519 8.369,10.6335519 C8.369,10.7135519 8.378,10.7895519 8.393,10.8685519 C8.408,10.9465519 8.428,11.0195519 8.458,11.0945519 C8.489,11.1725519 8.53,11.2415519 8.577,11.3135519 C8.603,11.3535519 8.613,11.4005519 8.644,11.4375519 C11.029,14.2815519 13.521,15.7185519 16.058,15.7185519 C16.224,15.7185519 16.391,15.7125519 16.558,15.6995519 C18.398,15.5625519 19.905,14.6825519 21.018,13.7435519 L21.018,19.7475519 L3.225,19.7475519 C1.447,19.7475519 3.55271368e-15,21.1935519 3.55271368e-15,22.9725519 L3.55271368e-15,28.0025519 C3.55271368e-15,29.7805519 1.447,31.2275519 3.225,31.2275519 L4.165,31.2275519 C4.12,31.5075519 4.098,31.7925519 4.131,32.0825519 L6.719,54.5085519 C6.918,56.2295519 8.43,57.5765519 10.162,57.5765519 L34.092,57.5765519 C35.824,57.5765519 37.336,56.2285519 37.535,54.5085519 L40.123,32.0825519 C40.157,31.7925519 40.135,31.5075519 40.089,31.2275519 L41.309,31.2275519 C43.087,31.2275519 44.534,29.7815519 44.534,28.0035519 L44.534,28.0035519 Z M24.914,4.06055188 C26.043,2.86955188 27.891,2.36155188 30.413,2.53655188 C30.353,5.05755188 29.675,6.84655188 28.389,7.85955188 C26.84,9.08055188 24.687,8.96955188 23.537,8.79655188 C23.474,7.63655188 23.568,5.48055188 24.914,4.06055188 L24.914,4.06055188 Z M16.359,13.2085519 C14.724,13.3425519 13.019,12.4625519 11.278,10.6345519 C13.019,8.81155188 14.724,7.94355188 16.359,8.06055188 C18.327,8.20055188 19.846,9.73155188 20.58,10.6345519 C19.846,11.5375519 18.327,13.0685519 16.359,13.2085519 L16.359,13.2085519 Z M2.5,28.0035519 L2.5,22.9735519 C2.5,22.5805519 2.832,22.2485519 3.225,22.2485519 L41.309,22.2485519 C41.702,22.2485519 42.034,22.5805519 42.034,22.9735519 L42.034,28.0035519 C42.034,28.3965519 41.702,28.7285519 41.309,28.7285519 L37.133,28.7285519 L7.121,28.7285519 L3.225,28.7285519 C2.832,28.7275519 2.5,28.3955519 2.5,28.0035519 L2.5,28.0035519 Z M35.53,50.0775519 L22.948,39.1215519 C22.477,38.7115519 21.777,38.7115519 21.306,39.1215519 L8.725,50.0785519 L8.152,45.1155519 L22.127,32.9455519 L36.102,45.1145519 L35.53,50.0775519 L35.53,50.0775519 Z M20.294,31.2275519 L7.805,42.1035519 L6.616,31.7955519 C6.597,31.6305519 6.636,31.4875519 6.728,31.3855519 C6.82,31.2815519 6.957,31.2275519 7.123,31.2275519 L20.294,31.2275519 L20.294,31.2275519 Z M17.549,55.0775519 L22.127,51.0905519 L26.706,55.0775519 L17.549,55.0775519 L17.549,55.0775519 Z M34.092,55.0775519 L30.513,55.0775519 L22.948,48.4905519 C22.477,48.0805519 21.776,48.0805519 21.306,48.4905519 L13.743,55.0775519 L10.162,55.0775519 C9.711,55.0775519 9.254,54.6705519 9.203,54.2225519 L9.073,53.0905519 L22.127,41.7215519 L35.183,53.0895519 L35.052,54.2225519 C35,54.6705519 34.543,55.0775519 34.092,55.0775519 L34.092,55.0775519 Z M37.528,31.3865519 C37.62,31.4895519 37.659,31.6315519 37.64,31.7965519 L36.451,42.1035519 L23.961,31.2275519 L37.133,31.2275519 C37.299,31.2275519 37.436,31.2825519 37.528,31.3865519 L37.528,31.3865519 Z" id="logo" fill="#FFFFFF" sketch:type="MSShapeGroup"></path>
    </g>
</svg>