<?xml version="1.0" encoding="UTF-8" standalone="no"?>
<svg width="101px" height="63px" viewBox="0 0 101 63" version="1.1" xmlns="http://www.w3.org/2000/svg" xmlns:xlink="http://www.w3.org/1999/xlink" xmlns:sketch="http://www.bohemiancoding.com/sketch/ns">
    <!-- Generator: Sketch Beta 3.3 (11751) - http://www.bohemiancoding.com/sketch -->
    <title>logo</title>
    <desc>Created with Sketch Beta.</desc>
    <defs></defs>
    <g id="Page-1" stroke="none" stroke-width="1" fill="none" fill-rule="evenodd" sketch:type="MSPage">
        <g id="logo" sketch:type="MSLayerGroup" fill="#FFFFFF">
            <path d="M31.414,43.34 C29.697,42.403 28.098,41.209 26.691,39.801 C24.68,37.789 22.783,34.158 21.047,29 C20.849,29.035 20.648,29.073 20.443,29.116 C19.833,29.23 19.23,29.373 18.631,29.544 C11.969,31.321 3.589,35.498 0,37.374 C3.59,39.25 11.975,43.433 18.622,45.205 C19.224,45.376 19.821,45.518 20.414,45.631 C21.684,45.891 22.787,46.021 23.709,46.021 L24.147,46.013 L24.601,46.021 C25.107,46.021 25.684,45.978 26.356,45.888 C27.259,45.148 28.198,44.568 29.151,44.162 C29.863,43.859 30.619,43.584 31.414,43.34 L31.414,43.34 Z" id="Shape" sketch:type="MSShapeGroup"></path>
            <path d="M100.415,37.375 C96.826,35.499 88.441,31.318 81.795,29.548 C81.181,29.373 80.583,29.231 80,29.12 C79.784,29.076 79.573,29.037 79.368,29 C77.632,34.159 75.735,37.791 73.725,39.802 C72.317,41.21 70.716,42.406 69,43.341 C69.795,43.585 70.551,43.86 71.263,44.161 C72.215,44.566 73.155,45.145 74.061,45.888 C74.716,45.977 75.304,46.021 75.814,46.021 L76.253,46.013 L76.706,46.021 C77.616,46.021 78.715,45.892 79.971,45.637 C80.595,45.519 81.2,45.374 81.782,45.206 C88.445,43.432 96.827,39.25 100.415,37.375 L100.415,37.375 Z" id="Shape" sketch:type="MSShapeGroup"></path>
            <path d="M33.672,44 C31.963,44.347 30.401,44.816 29.028,45.398 C28.192,45.753 27.358,46.287 26.549,46.982 C23.755,49.383 21.884,53.169 21,55.262 C24.23,55.036 31.564,54.473 37.888,53.586 C35.867,50.99 34.882,48.911 34.882,47.264 C34.882,46.312 35.05,45.379 35.384,44.477 C34.809,44.346 34.237,44.186 33.672,44 L33.672,44 Z" id="Shape" sketch:type="MSShapeGroup"></path>
            <path d="M73.34,46.981 C72.528,46.286 71.694,45.752 70.859,45.398 C69.489,44.817 67.928,44.346 66.216,44 C65.652,44.187 65.079,44.347 64.505,44.478 C64.839,45.382 65.008,46.314 65.008,47.265 C65.008,48.914 64.022,50.993 62,53.587 C68.324,54.474 75.656,55.037 78.887,55.263 C78,53.165 76.125,49.375 73.34,46.981 L73.34,46.981 Z" id="Shape" sketch:type="MSShapeGroup"></path>
            <path d="M55.569,44 C52.352,45.2 48.84,45.199 45.625,44 C43.426,44.787 41.006,45.063 38.526,44.809 C38.176,45.595 38,46.411 38,47.238 C38,48.024 38.481,49.9 41.707,53.644 C44.823,57.263 48.987,60.868 50.599,62.221 C52.21,60.867 56.373,57.263 59.49,53.644 C62.716,49.901 63.197,48.024 63.197,47.238 C63.197,46.412 63.02,45.596 62.671,44.809 C60.189,45.062 57.768,44.786 55.569,44 L55.569,44 Z" id="Shape" sketch:type="MSShapeGroup"></path>
            <path d="M62.671,43.273 C63.676,43.127 64.686,42.877 65.672,42.536 C68.193,41.658 70.561,40.16 72.52,38.201 C74.399,36.322 76.217,32.685 77.924,27.39 C80.205,20.313 81.629,12.223 82.146,9 C78.591,9.57 69.117,11.242 61.601,13.954 C64.609,19.642 66.132,24.13 66.132,27.307 C66.132,33.965 62.954,40.032 58,43.232 C58.791,43.37 59.604,43.439 60.438,43.439 C61.174,43.439 61.926,43.383 62.671,43.273 L62.671,43.273 Z" id="Shape" sketch:type="MSShapeGroup"></path>
            <path d="M22.219,27.391 C23.927,32.685 25.745,36.322 27.624,38.201 C29.581,40.159 31.949,41.657 34.474,42.536 C35.456,42.877 36.465,43.127 37.472,43.273 C39.061,43.508 40.654,43.492 42.143,43.233 C37.19,40.032 34.011,33.964 34.011,27.307 C34.011,24.131 35.535,19.642 38.543,13.954 C31.024,11.241 21.552,9.57 18,9 C18.516,12.224 19.939,20.318 22.219,27.391 L22.219,27.391 Z" id="Shape" sketch:type="MSShapeGroup"></path>
            <path d="M49.843,3.55271368e-15 C48.115,2.386 44.105,8.099 40.855,14.042 C37.679,19.848 36,24.486 36,27.456 C36,34.307 39.731,40.43 45.284,42.692 C48.223,43.884 51.461,43.887 54.402,42.691 C59.955,40.429 63.685,34.307 63.685,27.456 C63.685,24.485 62.006,19.848 58.831,14.042 C55.58,8.099 51.57,2.387 49.843,3.55271368e-15 L49.843,3.55271368e-15 Z" id="Shape" sketch:type="MSShapeGroup"></path>
        </g>
    </g>
</svg>